<?xml version="1.0" encoding="UTF-8"?>
<svg version="1.1" xmlns="http://www.w3.org/2000/svg" width="512" height="512">
<path d="M0 0 C26.72835437 21.81729089 29.84569456 64.63607019 33.06030273 96.36743164 C34.06544017 106.89903048 34.66491176 117.42738832 35 128 C35.5576001 128.17378174 36.1152002 128.34756348 36.68969727 128.52661133 C49.03361884 132.48932399 60.40925814 138.17586506 70 147 C71.26070313 148.12341797 71.26070313 148.12341797 72.546875 149.26953125 C83.92743057 159.94311292 91.53989782 172.89382906 92.375 188.59375 C93.24512795 217.04058926 83.11069322 239.93315526 64.0625 260.75 C1.12843915 327.53208041 -106.64071558 343.05926757 -227.89453125 351.88671875 C-240.56424867 352.16262091 -253.16413271 351.96509771 -265.8125 351.25 C-266.94594849 351.18614609 -266.94594849 351.18614609 -268.10229492 351.1210022 C-302.21333552 349.13477271 -339.94553924 343.66867904 -367 321 C-368.22203125 320.07960938 -368.22203125 320.07960938 -369.46875 319.140625 C-379.11613633 310.98203286 -385.90665323 298.42692585 -388 286 C-389.15225589 271.41322814 -388.69345718 256.91852819 -384 243 C-383.79101074 242.37125977 -383.58202148 241.74251953 -383.36669922 241.09472656 C-375.93690308 219.44535803 -362.61990128 202.33191957 -347 186 C-346.36320312 185.32195312 -345.72640625 184.64390625 -345.0703125 183.9453125 C-340.12567405 178.81140559 -334.57517199 174.42520178 -329 170 C-327.54980469 168.824375 -327.54980469 168.824375 -326.0703125 167.625 C-295.05228365 143 -295.05228365 143 -286 143 C-285.91024902 142.22325928 -285.82049805 141.44651855 -285.72802734 140.64624023 C-274.51663099 45.20975237 -274.51663099 45.20975237 -244.4375 21.375 C-237.41345617 16.31697353 -229.87065386 12.55743803 -222 9 C-220.97648438 8.52691406 -219.95296875 8.05382812 -218.8984375 7.56640625 C-183.43898202 -7.450065 -140.58363601 -4.33385984 -104.20678711 5.01806641 C-103.2091333 5.27378418 -102.21147949 5.52950195 -101.18359375 5.79296875 C-99.86186157 6.14137817 -99.86186157 6.14137817 -98.51342773 6.49682617 C-94.05940258 7.38849648 -91.03937538 7.38069623 -87.09375 5.05859375 C-85.99293091 4.43488892 -85.99293091 4.43488892 -84.86987305 3.79858398 C-83.69678589 3.12484741 -83.69678589 3.12484741 -82.5 2.4375 C-57.08527606 -11.58191988 -24.84519506 -19.04166095 0 0 Z " fill="#010100" transform="translate(404,85)"/>
<path d="M0 0 C17.80331968 13.03791982 23.12500895 37.40486975 26.4765625 58.0390625 C28.59131287 71.85575056 30.28983999 85.72392526 31.14111328 99.67773438 C31.34857506 102.35168625 31.69468933 104.98058261 32.0625 107.63671875 C33.32187994 118.80314955 33.32187994 118.80314955 30.13769531 122.89453125 C26.34201238 126.17574623 21.83367241 128.08145399 17.26220703 130.04980469 C14.0386119 131.47663302 10.91841749 133.05239754 7.78125 134.66015625 C-7.86023598 142.5954968 -23.81870002 149.23091358 -40.32861328 155.14355469 C-42.51357541 155.92997414 -44.6920034 156.73483536 -46.86279297 157.55957031 C-56.43897707 161.14021817 -66.18776473 163.74629958 -76.09130859 166.25195312 C-78.88660079 166.96085127 -81.67769302 167.68478572 -84.46875 168.41015625 C-95.80093744 171.32051789 -107.08939742 173.58031402 -118.65234375 175.33984375 C-120.63260426 175.68784239 -122.61206516 176.04050598 -124.58984375 176.40234375 C-132.88950406 177.78754436 -141.27847893 178.55117829 -149.65234375 179.33984375 C-150.54405777 179.42547073 -151.43577179 179.51109772 -152.35450745 179.59931946 C-159.28190381 180.2256312 -166.13234896 180.48718075 -173.0859375 180.47265625 C-174.12573257 180.47361298 -175.16552765 180.4745697 -176.23683167 180.47555542 C-178.41740988 180.47623041 -180.59799019 180.47442413 -182.77856445 180.47021484 C-186.07833463 180.46486242 -189.37796838 180.47018045 -192.67773438 180.4765625 C-208.46156239 180.4839415 -223.50551259 179.56308322 -239.08984375 176.90234375 C-240.42506425 176.68254166 -241.76035058 176.46313909 -243.09570312 176.24414062 C-248.80118991 175.28409661 -254.19064211 174.28952921 -259.65234375 172.33984375 C-259.82050885 165.06732591 -259.32588537 158.01688069 -258.48046875 150.796875 C-258.35677917 149.71137863 -258.2330896 148.62588226 -258.10565186 147.50749207 C-257.84279566 145.21536178 -257.57705976 142.92356009 -257.30859375 140.63208008 C-256.90886118 137.20816883 -256.52213923 133.7829699 -256.13671875 130.35742188 C-246.54527677 46.65654311 -246.54527677 46.65654311 -224.40625 26.51171875 C-198.44345466 6.03609576 -162.83023499 0.24106275 -130.57373047 3.55328369 C-125.5593019 4.1480535 -120.5730268 4.90168836 -115.58984375 5.71484375 C-114.90332733 5.8257132 -114.21681091 5.93658264 -113.50949097 6.05081177 C-102.05493561 7.93725189 -102.05493561 7.93725189 -99.65234375 10.33984375 C-121.60521414 21.16156856 -142.95595447 30.10237569 -166.65234375 36.33984375 C-167.37599121 36.53094727 -168.09963867 36.72205078 -168.84521484 36.91894531 C-179.31316633 39.56420007 -189.76363273 39.75901091 -200.51489258 39.78662109 C-201.63790771 39.80289551 -202.76092285 39.81916992 -203.91796875 39.8359375 C-205.43052246 39.83871704 -205.43052246 39.83871704 -206.97363281 39.84155273 C-210.35969916 40.47142527 -211.55788346 41.65770909 -213.65234375 44.33984375 C-213.92213314 46.71447166 -213.92213314 46.71447166 -213.40234375 49.08984375 C-213.20898438 50.28867188 -213.20898438 50.28867188 -213.01171875 51.51171875 C-212.893125 52.115 -212.77453125 52.71828125 -212.65234375 53.33984375 C-178.37093953 64.76697849 -129.99245939 42.50434274 -99.65234375 27.33984375 C-98.79866211 26.91316406 -97.94498047 26.48648438 -97.06542969 26.046875 C-88.53234924 21.73891206 -80.22370987 17.13040339 -72.02734375 12.21484375 C-51.18794655 -0.20566896 -23.21027031 -14.52778333 0 0 Z " fill="#B2795F" transform="translate(390.65234375,95.66015625)"/>
<path d="M0 0 C17.39661355 6.48981591 29.44455346 16.90968582 37.6875 33.60546875 C43.41144672 48.40936666 38.91020578 65.01617093 33 79 C20.33728983 104.64119865 -2.8529795 122.04780426 -27 136 C-27.66950684 136.3904248 -28.33901367 136.78084961 -29.02880859 137.18310547 C-42.37591601 144.8801489 -56.64282891 150.48708215 -71 156 C-71.97743164 156.37543945 -72.95486328 156.75087891 -73.96191406 157.13769531 C-99.37335523 166.75019646 -125.84954954 172.54987274 -152.52148438 177.36816406 C-155.62768929 177.93237366 -158.72815611 178.51987642 -161.828125 179.1171875 C-178.33116725 182.23116407 -194.9940345 184.07707779 -211.69268799 185.76568604 C-213.95037333 185.99496027 -216.20735523 186.23039885 -218.46435547 186.46630859 C-271.4574595 191.92252208 -345.29746989 198.68944624 -390.3125 164.0625 C-399.74606239 156.16636946 -406.62650096 146.53559691 -408 134 C-409.52907575 107.1923741 -399.09967967 82.97460857 -381.72558594 62.92041016 C-367.35773174 46.93037887 -351.55559794 34.09251237 -333.76171875 22.18408203 C-332.59136372 21.39746591 -331.42718272 20.60158166 -330.26953125 19.79638672 C-326.21544537 17 -326.21544537 17 -324 17 C-324.41132588 28.30811757 -324.94075082 39.59363716 -325.78662109 50.87841797 C-326.55267143 61.10824066 -327.20077015 71.30109989 -327.25 81.5625 C-327.259104 82.46621338 -327.26820801 83.36992676 -327.27758789 84.30102539 C-327.27364014 85.13110107 -327.26969238 85.96117676 -327.265625 86.81640625 C-327.26224121 87.89063843 -327.26224121 87.89063843 -327.25878906 88.98657227 C-326.95066455 91.38383909 -326.27893392 92.95327301 -325 95 C-314.16037819 101.9119985 -301.4680676 104.67084862 -289 107 C-288.14970215 107.16516113 -287.2994043 107.33032227 -286.42333984 107.50048828 C-237.04415272 116.58009922 -181.83400263 109.81403384 -133 100 C-131.92943359 99.78730469 -130.85886719 99.57460938 -129.75585938 99.35546875 C-115.55663744 96.48038136 -101.78263554 92.43198979 -88 88 C-86.80713379 87.62182129 -85.61426758 87.24364258 -84.38525391 86.85400391 C-68.49742785 81.80147532 -52.96244227 76.43394386 -38 69 C-37.23349121 68.62488281 -36.46698242 68.24976563 -35.67724609 67.86328125 C-22.11183125 61.1761451 -7.12790828 53.22187097 -1.64949036 38.23852539 C-0.59761435 34.61314262 -0.52043679 31.09862483 -0.48828125 27.34375 C-0.47033005 26.55601196 -0.45237885 25.76827393 -0.43388367 24.95666504 C-0.38023695 22.47116251 -0.34603384 19.9858468 -0.3125 17.5 C-0.27928643 15.80205758 -0.2447931 14.10413968 -0.20898438 12.40625 C-0.12453777 8.27096925 -0.05751144 4.13573948 0 0 Z " fill="#A26E57" transform="translate(440,231)"/>
<path d="M0 0 C0 11.55 0 23.1 0 35 C-31.60066747 39.89215354 -62.31083725 43.26234369 -94.3125 43.3125 C-95.43935211 43.31617584 -96.56620422 43.31985168 -97.72720337 43.32363892 C-115.44660826 43.35385778 -133.52801442 43.3003844 -150.75 38.625 C-151.94496094 38.33109375 -151.94496094 38.33109375 -153.1640625 38.03125 C-158.73614631 36.58798895 -162.57260247 34.71369876 -168 32 C-167.67 21.77 -167.34 11.54 -167 1 C-163.37 1.66 -159.74 2.32 -156 3 C-151.81775606 3.72208555 -147.62899699 4.39641921 -143.4375 5.0625 C-142.39787109 5.23587891 -141.35824219 5.40925781 -140.28710938 5.58789062 C-122.84806481 8.34142398 -105.17562539 8.24025494 -87.5625 8.25 C-86.45716919 8.25067474 -85.35183838 8.25134949 -84.2130127 8.25204468 C-67.60083248 8.23597729 -51.42373362 7.69030746 -35 5 C-33.70545898 4.79117187 -32.41091797 4.58234375 -31.07714844 4.3671875 C-25.62212916 3.4820875 -20.17022545 2.584589 -14.72753906 1.6262207 C-13.5309668 1.41570068 -12.33439453 1.20518066 -11.1015625 0.98828125 C-10.04275879 0.79790283 -8.98395508 0.60752441 -7.89306641 0.41137695 C-5 0 -5 0 0 0 Z " fill="#714A38" transform="translate(296,283)"/>
<path d="M0 0 C0.09938095 4.16253275 0.17170617 8.32442479 0.21972656 12.48779297 C0.23975843 13.90197795 0.26699248 15.31608097 0.30175781 16.72998047 C0.35065489 18.77071419 0.37305123 20.8103469 0.390625 22.8515625 C0.4220459 24.68968506 0.4220459 24.68968506 0.45410156 26.56494141 C-0.23097527 31.74721612 -2.68756569 34.78369941 -6.453125 38.2734375 C-14.51953203 44.3345087 -22.83309628 48.84425992 -32 53 C-32.85432617 53.38752441 -33.70865234 53.77504883 -34.58886719 54.17431641 C-37.32336912 55.40292488 -40.06547847 56.61216198 -42.8125 57.8125 C-43.6593335 58.18568359 -44.50616699 58.55886719 -45.37866211 58.94335938 C-51.59385659 61.60193068 -57.34459679 63.18489003 -64 65 C-64 53.12 -64 41.24 -64 29 C-57.76363731 26.16528969 -51.71139065 23.43870683 -45.375 20.9375 C-37.77877524 17.87102028 -30.38459644 14.41772031 -23 10.875 C-21.94989746 10.37218506 -20.89979492 9.86937012 -19.81787109 9.35131836 C-14.34691017 6.70465503 -8.99121391 3.9527442 -3.7421875 0.88720703 C-2 0 -2 0 0 0 Z " fill="#714A38" transform="translate(424,235)"/>
<path d="M0 0 C0 11.88 0 23.76 0 36 C-3.238125 36.94875 -6.47625 37.8975 -9.8125 38.875 C-10.80870361 39.17003418 -11.80490723 39.46506836 -12.83129883 39.76904297 C-13.65654053 40.00768066 -14.48178223 40.24631836 -15.33203125 40.4921875 C-16.15421143 40.73308105 -16.9763916 40.97397461 -17.82348633 41.22216797 C-22.50067049 42.36746877 -27.26230466 43.13860085 -32 44 C-32 32.12 -32 20.24 -32 8 C-22.5 5.6875 -22.5 5.6875 -19.55664062 4.97924805 C-15.46398803 3.96898891 -11.51820179 2.88015103 -7.59375 1.33203125 C-4 0 -4 0 0 0 Z " fill="#53372C" transform="translate(344,270)"/>
</svg>
